<svg width="400" height="400" viewBox="0 0 400 400" fill="none" xmlns="http://www.w3.org/2000/svg">
<circle cx="199.611" cy="197.611" r="189.03" transform="rotate(0.176504 199.611 197.611)" fill="#DDDDDD"/>
<path d="M63.0205 139.141V157.983H86.0137V241.24H63.0205V260H132.913V241.24H109.339V157.983H132.913V139.141H63.0205ZM240.491 139.141H217.332L217.249 219.243C217.194 223.172 216.779 226.631 216.004 229.619C215.229 232.607 214.067 235.098 212.518 237.09C211.079 239.027 209.253 240.493 207.039 241.489C204.881 242.43 202.391 242.9 199.568 242.9C196.967 242.9 194.671 242.458 192.679 241.572C190.687 240.632 188.999 239.248 187.615 237.422C186.121 235.43 184.987 232.912 184.212 229.868C183.493 226.825 183.105 223.283 183.05 219.243L182.967 139.141H159.642L159.559 219.243C159.559 225.994 160.499 232.026 162.381 237.339C164.318 242.596 167.029 247.023 170.516 250.62C174.002 254.217 178.18 256.956 183.05 258.838C187.975 260.719 193.481 261.66 199.568 261.66C206.043 261.66 211.798 260.719 216.834 258.838C221.925 256.956 226.242 254.189 229.783 250.537C233.27 246.94 235.926 242.513 237.752 237.256C239.633 231.999 240.574 225.994 240.574 219.243L240.491 139.141Z" fill="#DD2432"/>
<path d="M261.575 260H294.031C299.399 260 304.435 259.336 309.139 258.008C313.898 256.68 318.242 254.771 322.171 252.28C325.547 250.177 328.646 247.576 331.468 244.478C334.29 241.323 336.753 237.892 338.855 234.185C341.069 230.034 342.785 225.469 344.002 220.488C345.219 215.508 345.828 210.223 345.828 204.634V194.673C345.828 188.862 345.164 183.384 343.836 178.237C342.563 173.091 340.737 168.387 338.357 164.126C336.31 160.64 333.903 157.43 331.136 154.497C328.424 151.509 325.325 148.991 321.839 146.943C317.854 144.453 313.427 142.544 308.558 141.216C303.688 139.832 298.458 139.141 292.869 139.141H261.575V260ZM285.066 158.066H292.869C295.691 158.066 298.292 158.398 300.672 159.062C303.107 159.671 305.32 160.557 307.312 161.719C309.913 163.268 312.182 165.26 314.119 167.695C316.111 170.13 317.716 172.897 318.934 175.996C319.93 178.597 320.677 181.475 321.175 184.629C321.728 187.728 322.005 191.021 322.005 194.507V204.634C322.005 208.341 321.728 211.8 321.175 215.01C320.677 218.164 319.93 221.042 318.934 223.643C317.716 226.631 316.25 229.259 314.534 231.528C312.874 233.742 310.993 235.568 308.89 237.007C306.842 238.39 304.573 239.442 302.083 240.161C299.593 240.881 296.909 241.24 294.031 241.24H285.066V158.066Z" fill="#1E3D58"/>
</svg>
