<svg width="364" height="148" viewBox="0 0 364 148" fill="none" xmlns="http://www.w3.org/2000/svg">
<g clip-path="url(#clip0_3_7)">
<path fill-rule="evenodd" clip-rule="evenodd" d="M232 69C232 71.75 229.75 74 227 74H217V84C217 86.75 214.75 89 212 89C209.25 89 207 86.75 207 84V74H197C194.25 74 192 71.75 192 69C192 66.25 194.25 64 197 64H207V54C207 51.25 209.25 49 212 49C214.75 49 217 51.25 217 54V64H227C229.75 64 232 66.25 232 69ZM152 64H167V39H152V64ZM142 109H167V74H142V109ZM212 99C209.25 99 207 101.25 207 104V109H177V54H192C194.75 54 197 51.75 197 49C197 46.25 194.75 44 192 44H177V34C177 31.25 174.75 29 172 29H147C144.25 29 142 31.25 142 34V64H137C134.25 64 132 66.25 132 69V114C132 116.75 134.25 119 137 119H212C214.75 119 217 116.75 217 114V104C217 101.25 214.75 99 212 99Z" fill="#203F58"/>
<path d="M95.3926 11.4062V15.3965H100.262V33.0273H95.3926V37H110.193V33.0273H105.201V15.3965H110.193V11.4062H95.3926ZM111.354 58.4062H106.449L106.432 75.3691C106.42 76.2012 106.332 76.9336 106.168 77.5664C106.004 78.1992 105.758 78.7266 105.43 79.1484C105.125 79.5586 104.738 79.8691 104.27 80.0801C103.812 80.2793 103.285 80.3789 102.688 80.3789C102.137 80.3789 101.65 80.2852 101.229 80.0977C100.807 79.8984 100.449 79.6055 100.156 79.2188C99.8398 78.7969 99.5996 78.2637 99.4355 77.6191C99.2832 76.9746 99.2012 76.2246 99.1895 75.3691L99.1719 58.4062H94.2324L94.2148 75.3691C94.2148 76.7988 94.4141 78.0762 94.8125 79.2012C95.2227 80.3145 95.7969 81.252 96.5352 82.0137C97.2734 82.7754 98.1582 83.3555 99.1895 83.7539C100.232 84.1523 101.398 84.3516 102.688 84.3516C104.059 84.3516 105.277 84.1523 106.344 83.7539C107.422 83.3555 108.336 82.7695 109.086 81.9961C109.824 81.2344 110.387 80.2969 110.773 79.1836C111.172 78.0703 111.371 76.7988 111.371 75.3691L111.354 58.4062Z" fill="#A62935"/>
<path d="M94.1973 131H101.07C102.207 131 103.273 130.859 104.27 130.578C105.277 130.297 106.197 129.893 107.029 129.365C107.744 128.92 108.4 128.369 108.998 127.713C109.596 127.045 110.117 126.318 110.562 125.533C111.031 124.654 111.395 123.688 111.652 122.633C111.91 121.578 112.039 120.459 112.039 119.275V117.166C112.039 115.936 111.898 114.775 111.617 113.686C111.348 112.596 110.961 111.6 110.457 110.697C110.023 109.959 109.514 109.279 108.928 108.658C108.354 108.025 107.697 107.492 106.959 107.059C106.115 106.531 105.178 106.127 104.146 105.846C103.115 105.553 102.008 105.406 100.824 105.406H94.1973V131ZM99.1719 109.414H100.824C101.422 109.414 101.973 109.484 102.477 109.625C102.992 109.754 103.461 109.941 103.883 110.188C104.434 110.516 104.914 110.938 105.324 111.453C105.746 111.969 106.086 112.555 106.344 113.211C106.555 113.762 106.713 114.371 106.818 115.039C106.936 115.695 106.994 116.393 106.994 117.131V119.275C106.994 120.061 106.936 120.793 106.818 121.473C106.713 122.141 106.555 122.75 106.344 123.301C106.086 123.934 105.775 124.49 105.412 124.971C105.061 125.439 104.662 125.826 104.217 126.131C103.783 126.424 103.303 126.646 102.775 126.799C102.248 126.951 101.68 127.027 101.07 127.027H99.1719V109.414Z" fill="#203F58"/>
</g>
<defs>
<clipPath id="clip0_3_7">
<rect width="364" height="148" fill="white"/>
</clipPath>
</defs>
</svg>
